# xmcd
#
# Track frame offsets:
#	150
#	16827
#	32351
#	46621
#	61330
#	75434
#	89723
#	102437
#	117223
#	132469
#
# Disc length: 1939 seconds
#
# Revision: 0
# Processed by: cddbd v1.5.2PL0 Copyright (c) Steve Scherf et al.
# Submitted via: EasyCDDAExtractor 16.0.6.1
#
DISCID=7307910a
DTITLE=Συλλογικός δίσκος - Λαϊκό τραγούδι 1954-1967, 1965-4
DYEAR=2008
DGENRE=Λαϊκή
TTITLE0=Πάνου Πόλυ-Ρεπάνης Αντώνης - Αν μιλούσαν τα σύννεφα [Γιώργος Μητσάκης]
TTITLE1=Καζαντζίδης Στέλιος-Μαρινέλλα - Κι αν γελάω είναι ψέμα [Στέλιος Καζαντ
TTITLE1=ζίδης-Βαγγέλης Ατραϊδης]
TTITLE2=Γαβαλάς Πάνος - Όσο κι αν πίνω κι αν μεθώ [[Πάνος Γαβαλάς-Μ. Μεϊμάρης]
TTITLE3=Ζαγοραίος Σπύρος - Τον Χάρο τον αντάμωσαν [Μπάμπης Μπακάλης]
TTITLE4=Γαβαλάς Πάνος-Κούρτη Ρία - Μ' έκανε η αγάπη σου ξενύχτη [Αντώνης Κατιν
TTITLE4=άρης-Χ. Βασιλειάδης]
TTITLE5=Αγγελόπουλος Μανώλης-Βασιλείου Αννούλα - Κίνδυνος-θάνατος [Μανώλης Χιώ
TTITLE5=της]
TTITLE6=Τσαουσάκης Πρόδρομος-Διαμάντη Λίτσα - Τι θες και πας στις μάγισσες [Πρ
TTITLE6=Τσαουσάκης-Λ. Μπουρνέλης]
TTITLE7=Καζαντζίδης Στέλιος - Στην αγκαλιά μου έκλαιγες [Στέλιος Καζαντζίδης-Ι
TTITLE7=ωάννης Βασιλόπουλος]
TTITLE8=Γαβαλάς Πάνος - Πόσο μού 'χεις λείψει [Νίκος Μεϊμάρης]
TTITLE9=Διονυσίου Στράτος - Τα τεφτέρια της αγάπης πια τα κλείνω [Νίκος Δαλέζι
TTITLE9=ος]
EXTD=
EXTT0=
EXTT1=
EXTT2=
EXTT3=
EXTT4=
EXTT5=
EXTT6=
EXTT7=
EXTT8=
EXTT9=
PLAYORDER=
